ModelForces
version=1
nRows=4
nColumns=206
inDegrees=no

This file contains the forces exerted on a model during a simulation.

A force is a generalized force, meaning that it can be either a force (N) or a torque (Nm).

Units are S.I. units (second, meters, Newtons, ...)
Angles are in degrees.

endheader
time	glut_med1_r	glut_med2_r	glut_med3_r	glut_min1_r	glut_min2_r	glut_min3_r	semimem_r	semiten_r	bifemlh_r	bifemsh_r	sar_r	add_long_r	add_brev_r	add_mag1_r	add_mag2_r	add_mag3_r	tfl_r	pect_r	grac_r	glut_max1_r	glut_max2_r	glut_max3_r	iliacus_r	psoas_r	quad_fem_r	gem_r	peri_r	rect_fem_r	vas_med_r	vas_int_r	vas_lat_r	med_gas_r	lat_gas_r	soleus_r	tib_post_r	flex_dig_r	flex_hal_r	tib_ant_r	per_brev_r	per_long_r	per_tert_r	ext_dig_r	ext_hal_r	glut_med1_l	glut_med2_l	glut_med3_l	glut_min1_l	glut_min2_l	glut_min3_l	semimem_l	semiten_l	bifemlh_l	bifemsh_l	sar_l	add_long_l	add_brev_l	add_mag1_l	add_mag2_l	add_mag3_l	tfl_l	pect_l	grac_l	glut_max1_l	glut_max2_l	glut_max3_l	iliacus_l	psoas_l	quad_fem_l	gem_l	peri_l	rect_fem_l	vas_med_l	vas_int_l	vas_lat_l	med_gas_l	lat_gas_l	soleus_l	tib_post_l	flex_dig_l	flex_hal_l	tib_ant_l	per_brev_l	per_long_l	per_tert_l	ext_dig_l	ext_hal_l	ercspn_r	ercspn_l	intobl_r	intobl_l	extobl_r	extobl_l	femur_lat_meniscii_l.femur_lat_l.force.X	femur_lat_meniscii_l.femur_lat_l.force.Y	femur_lat_meniscii_l.femur_lat_l.force.Z	femur_lat_meniscii_l.femur_lat_l.torque.X	femur_lat_meniscii_l.femur_lat_l.torque.Y	femur_lat_meniscii_l.femur_lat_l.torque.Z	femur_lat_meniscii_l.meniscus_lat_l.force.X	femur_lat_meniscii_l.meniscus_lat_l.force.Y	femur_lat_meniscii_l.meniscus_lat_l.force.Z	femur_lat_meniscii_l.meniscus_lat_l.torque.X	femur_lat_meniscii_l.meniscus_lat_l.torque.Y	femur_lat_meniscii_l.meniscus_lat_l.torque.Z	femur_med_meniscii_l.femur_med_l.force.X	femur_med_meniscii_l.femur_med_l.force.Y	femur_med_meniscii_l.femur_med_l.force.Z	femur_med_meniscii_l.femur_med_l.torque.X	femur_med_meniscii_l.femur_med_l.torque.Y	femur_med_meniscii_l.femur_med_l.torque.Z	femur_med_meniscii_l.meniscus_med_l.force.X	femur_med_meniscii_l.meniscus_med_l.force.Y	femur_med_meniscii_l.meniscus_med_l.force.Z	femur_med_meniscii_l.meniscus_med_l.torque.X	femur_med_meniscii_l.meniscus_med_l.torque.Y	femur_med_meniscii_l.meniscus_med_l.torque.Z	femur_lat_meniscii_r.femur_lat_r.force.X	femur_lat_meniscii_r.femur_lat_r.force.Y	femur_lat_meniscii_r.femur_lat_r.force.Z	femur_lat_meniscii_r.femur_lat_r.torque.X	femur_lat_meniscii_r.femur_lat_r.torque.Y	femur_lat_meniscii_r.femur_lat_r.torque.Z	femur_lat_meniscii_r.meniscus_lat_r.force.X	femur_lat_meniscii_r.meniscus_lat_r.force.Y	femur_lat_meniscii_r.meniscus_lat_r.force.Z	femur_lat_meniscii_r.meniscus_lat_r.torque.X	femur_lat_meniscii_r.meniscus_lat_r.torque.Y	femur_lat_meniscii_r.meniscus_lat_r.torque.Z	femur_med_meniscii_r.femur_med_r.force.X	femur_med_meniscii_r.femur_med_r.force.Y	femur_med_meniscii_r.femur_med_r.force.Z	femur_med_meniscii_r.femur_med_r.torque.X	femur_med_meniscii_r.femur_med_r.torque.Y	femur_med_meniscii_r.femur_med_r.torque.Z	femur_med_meniscii_r.meniscus_med_r.force.X	femur_med_meniscii_r.meniscus_med_r.force.Y	femur_med_meniscii_r.meniscus_med_r.force.Z	femur_med_meniscii_r.meniscus_med_r.torque.X	femur_med_meniscii_r.meniscus_med_r.torque.Y	femur_med_meniscii_r.meniscus_med_r.torque.Z	femur_med_tibia_l.tibia_upper_l.force.X	femur_med_tibia_l.tibia_upper_l.force.Y	femur_med_tibia_l.tibia_upper_l.force.Z	femur_med_tibia_l.tibia_upper_l.torque.X	femur_med_tibia_l.tibia_upper_l.torque.Y	femur_med_tibia_l.tibia_upper_l.torque.Z	femur_med_tibia_l.femur_med_l.force.X	femur_med_tibia_l.femur_med_l.force.Y	femur_med_tibia_l.femur_med_l.force.Z	femur_med_tibia_l.femur_med_l.torque.X	femur_med_tibia_l.femur_med_l.torque.Y	femur_med_tibia_l.femur_med_l.torque.Z	femur_lat_tibia_l.tibia_upper_l.force.X	femur_lat_tibia_l.tibia_upper_l.force.Y	femur_lat_tibia_l.tibia_upper_l.force.Z	femur_lat_tibia_l.tibia_upper_l.torque.X	femur_lat_tibia_l.tibia_upper_l.torque.Y	femur_lat_tibia_l.tibia_upper_l.torque.Z	femur_lat_tibia_l.femur_lat_l.force.X	femur_lat_tibia_l.femur_lat_l.force.Y	femur_lat_tibia_l.femur_lat_l.force.Z	femur_lat_tibia_l.femur_lat_l.torque.X	femur_lat_tibia_l.femur_lat_l.torque.Y	femur_lat_tibia_l.femur_lat_l.torque.Z	femur_med_tibia_r.tibia_upper_r.force.X	femur_med_tibia_r.tibia_upper_r.force.Y	femur_med_tibia_r.tibia_upper_r.force.Z	femur_med_tibia_r.tibia_upper_r.torque.X	femur_med_tibia_r.tibia_upper_r.torque.Y	femur_med_tibia_r.tibia_upper_r.torque.Z	femur_med_tibia_r.femur_med_r.force.X	femur_med_tibia_r.femur_med_r.force.Y	femur_med_tibia_r.femur_med_r.force.Z	femur_med_tibia_r.femur_med_r.torque.X	femur_med_tibia_r.femur_med_r.torque.Y	femur_med_tibia_r.femur_med_r.torque.Z	femur_lat_tibia_r.tibia_upper_r.force.X	femur_lat_tibia_r.tibia_upper_r.force.Y	femur_lat_tibia_r.tibia_upper_r.force.Z	femur_lat_tibia_r.tibia_upper_r.torque.X	femur_lat_tibia_r.tibia_upper_r.torque.Y	femur_lat_tibia_r.tibia_upper_r.torque.Z	femur_lat_tibia_r.femur_lat_r.force.X	femur_lat_tibia_r.femur_lat_r.force.Y	femur_lat_tibia_r.femur_lat_r.force.Z	femur_lat_tibia_r.femur_lat_r.torque.X	femur_lat_tibia_r.femur_lat_r.torque.Y	femur_lat_tibia_r.femur_lat_r.torque.Z	aACL_R	pACL_R	aPCL_R	pPCL_R	aMCL_R	mMCL_R	pMCL_R	aLCL_R	mLCL_R	pLCL_R	aPCL_L	pPCL_L	aMCL_L	aLCL_L	ground_prescribedForce_-60_fx	ground_prescribedForce_-60_fy	ground_prescribedForce_-60_fz
      0.00000000	     37.48087652	     28.28714471	     30.25598133	     13.28977762	     14.47626353	     15.91713841	      0.00000000	     17.49820321	     17.04633873	     27.10236747	      7.45127246	     27.93927808	     20.68957741	     14.51222487	     12.16230296	     19.66717628	     11.86414304	     11.16605282	      7.19934996	     18.12681708	     27.55933735	     20.56469162	     63.94906620	     55.74758807	     18.09791099	      9.16719286	     20.03897647	     80.64682844	     61.02071088	     63.82393126	     84.49363266	     20.72634102	     13.64312311	    152.72720615	     92.44658902	     14.93332009	     15.26895791	     41.82851940	     21.62523106	     46.40594865	      8.86060096	     25.04818486	      7.96045570	     37.48087652	     28.28714471	     30.25598133	     13.28977762	     14.47626353	     15.91713841	     42.06683902	     20.39635155	     37.67631238	     36.01822118	      7.59254209	     27.93927808	     20.68957741	     14.51222487	     12.16230296	     19.66717628	     12.58139899	     11.16605282	      7.78214370	     18.12681708	     27.55933735	     20.56469162	     63.94906620	     55.74758807	     18.09791099	      9.16719286	     20.03897647	     52.59637061	     32.48786114	     37.22481259	     39.87514307	     67.71424671	     31.64857027	    152.72720615	     92.44658902	     14.93332009	     15.26895791	     41.82851940	     21.62523106	     46.40594865	      8.86060096	     25.04818486	      7.96045570	    124.99446086	    124.99446086	     44.97041513	     44.97041513	     60.98287244	     60.98287244	      2.76307435	     50.99597937	     -9.56042239	      5.21997485	     -0.02578839	      1.48581788	     -2.76307435	    -50.99597937	      9.56042239	     -1.74637766	      0.02558040	     -0.48301696	     -3.31599387	     20.97615968	     -3.40468921	      0.94473225	     -0.02138609	     -1.00501789	      3.31599387	    -20.97615968	      3.40468921	      0.28075727	      0.00368718	     -0.29758878	    140.03691507	     49.71673620	     -8.93029479	      2.46601349	      3.44728001	     57.20141392	   -140.03691507	    -49.71673620	      8.93029479	      1.18168368	     -3.82615585	     -2.11075904	     11.04274582	     -0.57585073	      0.37240761	     -0.15990699	     -0.22242484	      4.47534053	    -11.04274582	      0.57585073	     -0.37240761	      0.01384140	      0.17002295	     -0.22518715	      0.00000000	      0.00000000	      0.00000000	      0.00000000	      0.00000000	      0.00000000	      0.00000000	      0.00000000	      0.00000000	      0.00000000	      0.00000000	      0.00000000	      0.00000000	      0.00000000	      0.00000000	      0.00000000	      0.00000000	      0.00000000	      0.00000000	      0.00000000	      0.00000000	      0.00000000	      0.00000000	      0.00000000	      0.00000000	      0.00000000	      0.00000000	      0.00000000	      0.00000000	      0.00000000	      0.00000000	      0.00000000	      0.00000000	      0.00000000	      0.00000000	      0.00000000	   -805.66067472	   -480.90696371	   -267.09377857	     19.69156458	    -28.65447172	     -7.80973758	    805.66067472	    480.90696371	    267.09377857	   -120.83978790	     19.81155834	    328.83467846	      0.00000000	      0.00000000	    800.65810037	    495.46936879	      2.10393544	      0.46325593	      0.28846339	      0.00000000	      0.00000000	      0.00000000	      0.00000000	      0.00000000	      0.00000001	      0.00000000	     55.00000000	    -95.26270000	      0.00000000
      0.00049292	     37.47839357	     28.28298076	     30.25227237	     13.28463315	     14.47342429	     15.91603234	      0.00000000	     17.61546074	     17.13302982	     27.41864981	      7.54597197	     27.93590939	     20.67748750	     14.51011270	     12.16104392	     19.66614506	     11.84260924	     11.16284223	      7.27469560	     18.12460268	     27.55602469	     20.56261519	     63.94336152	     55.74431774	     18.09414147	      9.16668265	     20.03853092	     81.04770818	     62.10058004	     64.86690249	     85.76581713	     20.53820219	     13.53650073	    152.03831633	     92.37299536	     14.94340474	     15.27248945	     42.02121944	     21.60569834	     46.37320048	      8.91532506	     25.08194274	      7.97203186	     37.47839357	     28.28298076	     30.25227237	     13.28463315	     14.47342429	     15.91603234	     42.06573587	     20.39485375	     37.67507986	     36.01094879	      7.58902576	     27.93590939	     20.67748750	     14.51011270	     12.16104392	     19.66614506	     12.58114096	     11.16284223	      7.78014548	     18.12460268	     27.55602469	     20.56261519	     63.94336152	     55.74431774	     18.09414147	      9.16668265	     20.03853092	     52.59450316	     32.48513254	     37.22210986	     39.87239349	     67.71316238	     31.64805443	    152.72383141	     92.44573929	     14.93349170	     15.26907358	     41.82675994	     21.62460067	     46.40531995	      8.85993167	     25.04698864	      7.95997567	    124.94964342	    124.94964342	     44.96624846	     44.96624846	     60.97836273	     60.97836273	      2.76307435	     50.99597937	     -9.56042239	      5.21997485	     -0.02578839	      1.48581788	     -2.76307435	    -50.99597937	      9.56042239	     -1.74637766	      0.02558040	     -0.48301696	     -3.31599387	     20.97615968	     -3.40468921	      0.94473225	     -0.02138609	     -1.00501789	      3.31599387	    -20.97615968	      3.40468921	      0.28075727	      0.00368718	     -0.29758878	    170.32673921	     23.83247024	    -56.44816138	     22.63226423	      3.67131733	     69.92728238	   -170.32673921	    -23.83247024	     56.44816138	     -0.74771707	     -3.18059590	     -3.68564458	     12.62838261	     -1.93351325	     -2.04998304	      0.79232282	     -0.28371909	      5.13300920	    -12.62838261	      1.93351325	      2.04998304	     -0.00891157	      0.27540922	     -0.29917196	      0.00000000	      0.00000000	      0.00000000	      0.00000000	      0.00000000	      0.00000000	      0.00000000	      0.00000000	      0.00000000	      0.00000000	      0.00000000	      0.00000000	      0.00000000	      0.00000000	      0.00000000	      0.00000000	      0.00000000	      0.00000000	      0.00000000	      0.00000000	      0.00000000	      0.00000000	      0.00000000	      0.00000000	      0.00000000	      0.00000000	      0.00000000	      0.00000000	      0.00000000	      0.00000000	      0.00000000	      0.00000000	      0.00000000	      0.00000000	      0.00000000	      0.00000000	   -930.71306654	   -384.03838615	    -83.86248659	     12.04444647	    -26.06075477	    -14.39379506	    930.71306654	    384.03838615	     83.86248659	    -42.85611479	     20.53053398	    381.66932709	      0.00000000	      0.00000000	    784.70947426	    456.22018405	    -12.09701732	    -15.49166636	    -17.65649573	      0.00000000	      0.00000000	      0.00000000	      0.00000000	      0.00000000	      0.00000001	      0.00000000	     55.00000000	    -95.26270000	      0.00000000
      0.00098584	     37.47097175	     28.27069879	     30.24128790	     13.27005504	     14.46512300	     15.91272781	      0.00000000	     17.87642091	     17.34532241	     28.16377487	      7.73450952	     27.92592980	     20.64436082	     14.50388140	     12.15730371	     19.66305572	     11.79438826	     11.15359162	      7.43805579	     18.11804464	     27.54621086	     20.55644410	     63.92642956	     55.73453255	     18.08313519	      9.16515690	     20.03718949	     81.94240783	     64.44410488	     67.12480540	     88.52150259	     20.09777833	     13.29367574	    150.22642418	     92.24867393	     14.98226313	     15.29249304	     42.57517054	     21.50242305	     46.23582703	      9.03937327	     25.15891786	      8.00346158	     37.47097175	     28.27069879	     30.24128790	     13.27005504	     14.46512300	     15.91272781	     42.06241700	     20.39038169	     37.67137560	     35.98969216	      7.57918918	     27.92592980	     20.64436082	     14.50388140	     12.15730371	     19.66305572	     12.58036420	     11.15359162	      7.77435797	     18.11804464	     27.54621086	     20.55644410	     63.92642956	     55.73453255	     18.08313519	      9.16515690	     20.03718949	     52.58889297	     32.47700095	     37.21404024	     39.86417933	     67.70989445	     31.64649984	    152.71367081	     92.44317680	     14.93400247	     15.26941563	     41.82147981	     21.62270478	     46.40342426	      8.85793468	     25.04340247	      7.95853829	    124.82202935	    124.82202935	     44.95384709	     44.95384709	     60.96496614	     60.96496614	      2.76307435	     50.99597937	     -9.56042239	      5.21997485	     -0.02578839	      1.48581788	     -2.76307435	    -50.99597937	      9.56042239	     -1.74637766	      0.02558040	     -0.48301696	     -3.31599387	     20.97615968	     -3.40468921	      0.94473225	     -0.02138609	     -1.00501789	      3.31599387	    -20.97615968	      3.40468921	      0.28075727	      0.00368718	     -0.29758878	    181.73485356	     10.71484125	    -66.91150835	     27.25893401	      3.84276748	     74.77517836	   -181.73485356	    -10.71484125	     66.91150835	     -1.38748999	     -3.18333012	     -4.40150165	     14.42539099	     -2.95849415	     -2.97143383	      1.14443732	     -0.33052825	      5.87183571	    -14.42539099	      2.95849415	      2.97143383	     -0.00955746	      0.33385206	     -0.36565481	      0.00000000	      0.00000000	      0.00000000	      0.00000000	      0.00000000	      0.00000000	      0.00000000	      0.00000000	      0.00000000	      0.00000000	      0.00000000	      0.00000000	      0.00000000	      0.00000000	      0.00000000	      0.00000000	      0.00000000	      0.00000000	      0.00000000	      0.00000000	      0.00000000	      0.00000000	      0.00000000	      0.00000000	      0.00000000	      0.00000000	      0.00000000	      0.00000000	      0.00000000	      0.00000000	      0.00000000	      0.00000000	      0.00000000	      0.00000000	      0.00000000	      0.00000000	   -979.27142416	   -333.22312885	    -46.31889834	      9.70616892	    -26.13418627	    -17.35194046	    979.27142416	    333.22312885	     46.31889834	    -26.22386364	     21.16324464	    402.32955852	      0.00000000	      0.00000000	    775.49824247	    438.69162062	    -15.91848232	    -20.18365460	    -23.02297277	      0.00000000	      0.00000000	      0.00000000	      0.00000000	      0.00000000	      0.00000001	      0.00000000	     55.00000000	    -95.26270000	      0.00000000
      0.00179112	     37.44833954	     28.23400960	     30.20826886	     13.22904180	     14.44065568	     15.90265880	      0.00000000	     18.42826689	     17.83703460	     29.78828971	      8.05709022	     27.89591763	     20.55552769	     14.48526083	     12.14600716	     19.65360211	     11.69741439	     11.12691829	      7.75914875	     18.09833145	     27.51669595	     20.53779335	     63.87535898	     55.70464678	     18.05076180	      9.16050088	     20.03305242	     83.84858551	     69.31905701	     71.82145814	     94.26888045	     19.07606998	     12.74761261	    145.44164316	     92.07965985	     15.11582027	     15.37140604	     44.18481979	     21.10636450	     45.74754533	      9.32419445	     25.33745835	      8.09020917	     37.44833954	     28.23400960	     30.20826886	     13.22904180	     14.44065568	     15.90265880	     42.05219313	     20.37676856	     37.65998267	     35.92706686	      7.55202721	     27.89591763	     20.55552769	     14.48526083	     12.14600716	     19.65360211	     12.57796917	     11.12691829	      7.75754079	     18.09833145	     27.51669595	     20.53779335	     63.87535898	     55.70464678	     18.05076180	      9.16050088	     20.03305242	     52.57164987	     32.45231969	     37.18947547	     39.83915220	     67.69979990	     31.64169799	    152.68233345	     92.43525354	     14.93554698	     15.27043834	     41.80527823	     21.61686761	     46.39756419	      8.85186195	     25.03242093	      7.95414507	    124.46046947	    124.46046947	     44.91628189	     44.91628189	     60.92450522	     60.92450522	      2.76307435	     50.99597937	     -9.56042239	      5.21997485	     -0.02578839	      1.48581788	     -2.76307435	    -50.99597937	      9.56042239	     -1.74637766	      0.02558040	     -0.48301696	     -3.31599387	     20.97615968	     -3.40468921	      0.94473225	     -0.02138609	     -1.00501789	      3.31599387	    -20.97615968	      3.40468921	      0.28075727	      0.00368718	     -0.29758878	    190.53509777	     -0.52212282	    -68.23099913	     28.08417601	      4.05926772	     78.52550390	   -190.53509777	      0.52212282	     68.23099913	     -1.74680207	     -3.41501168	     -4.98330457	     17.81495276	     -4.33576740	     -3.75354629	      1.43369682	     -0.40745844	      7.25878911	    -17.81495276	      4.33576740	      3.75354629	     -0.00262719	      0.41257597	     -0.47260682	      0.00000000	      0.00000000	      0.00000000	      0.00000000	      0.00000000	      0.00000000	      0.00000000	      0.00000000	      0.00000000	      0.00000000	      0.00000000	      0.00000000	      0.00000000	      0.00000000	      0.00000000	      0.00000000	      0.00000000	      0.00000000	      0.00000000	      0.00000000	      0.00000000	      0.00000000	      0.00000000	      0.00000000	      0.00000000	      0.00000000	      0.00000000	      0.00000000	      0.00000000	      0.00000000	      0.00000000	      0.00000000	      0.00000000	      0.00000000	      0.00000000	      0.00000000	  -1005.04780872	   -297.99840795	    -49.36963061	      8.92015056	    -26.93207921	    -19.15778912	   1005.04780872	    297.99840795	     49.36963061	    -26.74624328	     21.73968944	    413.39609058	      0.00000000	      0.00000000	    765.37764028	    425.61742245	    -16.51484091	    -21.36325016	    -24.50872457	      0.00000000	      0.00000000	      0.00000000	      0.00000000	      0.00000000	      0.00000001	      0.00000000	     55.00000000	    -95.26270000	      0.00000000
